<?xml version="1.0" encoding="UTF-8" standalone="no"?>
<svg
   xmlns:dc="http://purl.org/dc/elements/1.1/"
   xmlns:cc="http://creativecommons.org/ns#"
   xmlns:rdf="http://www.w3.org/1999/02/22-rdf-syntax-ns#"
   xmlns:svg="http://www.w3.org/2000/svg"
   xmlns="http://www.w3.org/2000/svg"
   xmlns:xlink="http://www.w3.org/1999/xlink"
   id="svg8"
   version="1.1"
   viewBox="0 0 67.733332 67.733335"
   height="256"
   width="256">
  <defs
     id="defs2"><linearGradient
   id="linearGradient972">
  <stop
     id="stop968"
     offset="0"
     style="stop-color:#ebf7fc;stop-opacity:1" />
  <stop
     id="stop970"
     offset="1"
     style="stop-color:#4eccff;stop-opacity:1" />
</linearGradient>
<linearGradient
   id="linearGradient833">
  <stop
     style="stop-color:#ffffff;stop-opacity:0;"
     offset="0"
     id="stop831" />
  <stop
     style="stop-color:#ffffff;stop-opacity:0.39669421"
     offset="1"
     id="stop829" />
</linearGradient>
<linearGradient
   id="linearGradient821">
  <stop
     style="stop-color:#74daff;stop-opacity:1"
     offset="0"
     id="stop819" />
  <stop
     style="stop-color:#0086b9;stop-opacity:1"
     offset="1"
     id="stop817" />
</linearGradient>
<radialGradient
   gradientTransform="matrix(1.14853,0,0,1.14853,-44.057331,80.255575)"
   gradientUnits="userSpaceOnUse"
   r="29.104166"
   fy="147.51042"
   fx="72.382439"
   cy="147.51042"
   cx="72.382439"
   id="radialGradient823"
   xlink:href="#linearGradient821" />
<linearGradient
   gradientTransform="matrix(1.2507718,0,0,1.1895453,-50.968384,75.345366)"
   gradientUnits="userSpaceOnUse"
   y2="133.19487"
   x2="72.739418"
   y1="167.49188"
   x1="63.709988"
   id="linearGradient837"
   xlink:href="#linearGradient833" />
<radialGradient
   gradientUnits="userSpaceOnUse"
   gradientTransform="matrix(-2.2628203,3.8216122,-3.1354112,-1.8565194,2260.0505,-676.12216)"
   r="149.3335"
   fy="358.79398"
   fx="379.06229"
   cy="358.79398"
   cx="379.06229"
   id="radialGradient954"
   xlink:href="#linearGradient972" />
















	
<linearGradient
   y2="133.19487"
   x2="72.739418"
   y1="167.49188"
   x1="63.709988"
   gradientTransform="matrix(1.2920962,0,0,1.2288468,-54.204815,67.842456)"
   gradientUnits="userSpaceOnUse"
   id="linearGradient1038"
   xlink:href="#linearGradient833" />
</defs>
  <metadata
     id="metadata5">
    <rdf:RDF>
      <cc:Work
         rdf:about="">
        <dc:format>image/svg+xml</dc:format>
        <dc:type
           rdf:resource="http://purl.org/dc/dcmitype/StillImage" />
        <dc:title></dc:title>
      </cc:Work>
    </rdf:RDF>
  </metadata>
  <g
     transform="translate(0,-229.26665)"
     id="layer1">
    <circle
       r="33.42701"
       cy="263.13333"
       cx="33.866665"
       id="path815"
       style="fill:url(#radialGradient823);fill-opacity:1;stroke:none;stroke-width:0.30388188" />
    <g
       transform="matrix(0.09677787,0,0,0.09677787,9.0914854,239.78058)"
       style="fill:#ffffff"
       id="g883">
		<path
   style="fill:url(#radialGradient954);fill-opacity:1"
   d="m 394.667,128 h -64 C 324.771,128 320,132.52 320,138.42 v 64.042 c 0,5.9 4.771,10.674 10.667,10.674 h 10.667 v 7.849 c 0,7.453 -3.969,14.468 -10.365,18.304 l -53.635,32.205 V 106.399 h 32 c 3.875,0 7.448,-2.106 9.333,-5.504 1.875,-3.388 1.771,-7.536 -0.292,-10.83 L 265.042,4.675 c -3.896,-6.233 -14.188,-6.233 -18.083,0 l -53.333,85.39 c -2.063,3.294 -2.167,7.442 -0.292,10.83 1.885,3.398 5.458,5.504 9.333,5.504 h 32 V 336.958 L 192.302,313.4 c -6.771,-3.752 -10.969,-10.903 -10.969,-18.648 v -22.098 c 18.802,-8.259 32,-27.017 32,-48.845 0,-29.426 -23.927,-53.143 -53.333,-53.143 -29.406,0 -53.333,23.717 -53.333,53.143 0,21.828 13.198,40.585 32,48.845 v 22.098 c 0,23.255 12.615,44.707 32.917,55.974 l 63.083,35.074 v 23.986 c -18.802,8.259 -32,27.017 -32,48.845 0,29.426 23.927,53.369 53.333,53.369 29.406,0 53.333,-23.943 53.333,-53.369 0,-21.828 -13.198,-40.585 -32,-48.845 v -88.501 l 75.583,-45.389 C 372.094,264.399 384,243.354 384,220.985 v -7.849 h 10.667 c 5.896,0 10.667,-4.774 10.667,-10.674 V 138.42 C 405.333,132.52 400.562,128 394.667,128 Z"
   id="path881" />

	</g>
    <ellipse
       ry="16.604975"
       rx="20.267838"
       cy="247.13609"
       cx="33.948071"
       id="path827"
       style="fill:url(#linearGradient1038);fill-opacity:1;stroke:none;stroke-width:0.33339477" />
  </g>
</svg>
