<?xml version="1.0" encoding="UTF-8" standalone="no"?>
<svg
   xmlns:dc="http://purl.org/dc/elements/1.1/"
   xmlns:cc="http://creativecommons.org/ns#"
   xmlns:rdf="http://www.w3.org/1999/02/22-rdf-syntax-ns#"
   xmlns:svg="http://www.w3.org/2000/svg"
   xmlns="http://www.w3.org/2000/svg"
   xmlns:xlink="http://www.w3.org/1999/xlink"
   xmlns:sodipodi="http://sodipodi.sourceforge.net/DTD/sodipodi-0.dtd"
   xmlns:inkscape="http://www.inkscape.org/namespaces/inkscape"
   id="svg8"
   version="1.1"
   viewBox="0 0 67.733332 67.733335"
   height="256"
   width="256"
   sodipodi:docname="ventoy-assistant.svg"
   inkscape:version="1.0.2 (1.0.2+r75+1)">
  <sodipodi:namedview
     pagecolor="#ffffff"
     bordercolor="#666666"
     borderopacity="1"
     objecttolerance="10"
     gridtolerance="10"
     guidetolerance="10"
     inkscape:pageopacity="0"
     inkscape:pageshadow="2"
     inkscape:window-width="1920"
     inkscape:window-height="1040"
     id="namedview23"
     showgrid="false"
     inkscape:zoom="1.2111966"
     inkscape:cx="-11.977845"
     inkscape:cy="51.11258"
     inkscape:window-x="1280"
     inkscape:window-y="0"
     inkscape:window-maximized="1"
     inkscape:current-layer="svg8" />
  <defs
     id="defs2">
    <linearGradient
       id="linearGradient972">
      <stop
         id="stop968"
         offset="0"
         style="stop-color:#ebf7fc;stop-opacity:1" />
      <stop
         id="stop970"
         offset="1"
         style="stop-color:#4eccff;stop-opacity:1" />
    </linearGradient>
    <linearGradient
       id="linearGradient833">
      <stop
         style="stop-color:#ffffff;stop-opacity:0;"
         offset="0"
         id="stop831" />
      <stop
         style="stop-color:#ffffff;stop-opacity:0.39669421"
         offset="1"
         id="stop829" />
    </linearGradient>
    <linearGradient
       id="linearGradient821">
      <stop
         style="stop-color:#74daff;stop-opacity:1"
         offset="0"
         id="stop819" />
      <stop
         style="stop-color:#0086b9;stop-opacity:1"
         offset="1"
         id="stop817" />
    </linearGradient>
    <radialGradient
       gradientTransform="matrix(0.94744718,0,0,0.94744718,-30.414521,-122.84547)"
       gradientUnits="userSpaceOnUse"
       r="29.104166"
       fy="147.51042"
       fx="72.382439"
       cy="147.51042"
       cx="72.382439"
       id="radialGradient823"
       xlink:href="#linearGradient821" />
    <linearGradient
       gradientTransform="matrix(1.2507718,0,0,1.1895453,-50.968384,75.345366)"
       gradientUnits="userSpaceOnUse"
       y2="133.19487"
       x2="72.739418"
       y1="167.49188"
       x1="63.709988"
       id="linearGradient837"
       xlink:href="#linearGradient833" />
    <radialGradient
       gradientUnits="userSpaceOnUse"
       gradientTransform="matrix(-0.18065034,0.30509518,-0.2503129,-0.14821365,193.8583,-45.227496)"
       r="149.3335"
       fy="358.79398"
       fx="379.06229"
       cy="358.79398"
       cx="379.06229"
       id="radialGradient954"
       xlink:href="#linearGradient972" />
    <linearGradient
       y2="133.19487"
       x2="72.739418"
       y1="167.49188"
       x1="63.709988"
       gradientTransform="matrix(1.065878,0,0,1.0137022,-38.785399,-133.08532)"
       gradientUnits="userSpaceOnUse"
       id="linearGradient1038"
       xlink:href="#linearGradient833" />
  </defs>
  <metadata
     id="metadata5">
    <rdf:RDF>
      <cc:Work
         rdf:about="">
        <dc:format>image/svg+xml</dc:format>
        <dc:type
           rdf:resource="http://purl.org/dc/dcmitype/StillImage" />
        <dc:title />
      </cc:Work>
    </rdf:RDF>
  </metadata>
  <path
     id="path815"
     style="fill:url(#radialGradient823);fill-opacity:1;stroke:none;stroke-width:0.250679"
     d="M 61.441326,28.014332 A 27.574662,27.574662 0 0 1 33.866665,55.588994 27.574662,27.574662 0 0 1 6.2920033,28.014332 27.574662,27.574662 0 0 1 33.866665,0.43967056 27.574662,27.574662 0 0 1 61.441326,28.014332 Z" />
  <path
     style="fill:url(#radialGradient954);fill-opacity:1;stroke-width:0.0798342"
     d="m 44.936991,18.968916 h -5.109387 c -0.470701,0 -0.85159,0.36085 -0.85159,0.831872 v 5.112739 c 0,0.471022 0.380889,0.85215 0.85159,0.85215 h 0.851592 v 0.626618 c 0,0.595004 -0.316862,1.155041 -0.827482,1.461285 L 35.56981,30.424638 V 17.244419 h 2.554693 c 0.309357,0 0.594605,-0.168131 0.745092,-0.439408 0.149689,-0.270477 0.141387,-0.60163 -0.02331,-0.864603 L 34.588488,9.1233696 c -0.311034,-0.4976067 -1.132688,-0.4976067 -1.443642,0 l -4.257795,6.8170384 c -0.164697,0.262973 -0.173,0.594126 -0.02331,0.864603 0.150487,0.271277 0.435735,0.439408 0.745092,0.439408 h 2.554693 V 35.650902 L 28.78135,33.770168 c -0.540557,-0.299537 -0.8757,-0.870432 -0.8757,-1.488747 v -1.764175 c 1.501041,-0.65935 2.554693,-2.156879 2.554693,-3.8995 0,-2.349199 -1.910192,-4.242626 -4.257795,-4.242626 -2.347603,0 -4.257796,1.893427 -4.257796,4.242626 0,1.742621 1.053652,3.24007 2.554693,3.8995 v 1.764175 c 0,1.856543 1.007108,3.569145 2.627901,4.468637 l 5.036178,2.800103 v 1.914902 c -1.501042,0.659351 -2.554693,2.156879 -2.554693,3.899499 0,2.3492 1.910192,4.260669 4.257795,4.260669 2.347603,0 4.257795,-1.911469 4.257795,-4.260669 0,-1.74262 -1.053651,-3.240069 -2.554693,-3.899499 v -7.065402 l 6.034105,-3.623593 c 1.531059,-0.917853 2.481565,-2.597963 2.481565,-4.383773 v -0.626618 h 0.851591 c 0.470702,0 0.851591,-0.381128 0.851591,-0.85215 v -5.112739 c -8e-5,-0.471022 -0.380968,-0.831872 -0.851591,-0.831872 z"
     id="path881" />
  <path
     id="path827"
     style="fill:url(#linearGradient1038);fill-opacity:1;stroke:none;stroke-width:0.275025"
     d="M 50.653195,14.817867 A 16.719377,13.697802 0 0 1 33.933819,28.515669 16.719377,13.697802 0 0 1 17.214442,14.817867 16.719377,13.697802 0 0 1 33.933819,1.1200647 16.719377,13.697802 0 0 1 50.653195,14.817867 Z" />
  <path
     style="fill:#37c837;stroke:#37c837;stroke-width:2.11667;stroke-linecap:butt;stroke-linejoin:miter;stroke-miterlimit:4;stroke-dasharray:none;stroke-opacity:1"
     d="M 19.910628,60.170545 H 27.05089"
     id="path923"
     sodipodi:nodetypes="cc" />
  <path
     id="path25"
     style="fill:#55d400;stroke:#d7f4d7;stroke-width:1.32292;stroke-miterlimit:4;stroke-dasharray:none"
     d="m 20.081499,60.170543 a 6.9013314,6.9013314 0 0 1 -6.901332,6.901331 6.9013314,6.9013314 0 0 1 -6.9013309,-6.901331 6.9013314,6.9013314 0 0 1 6.9013309,-6.901332 6.9013314,6.9013314 0 0 1 6.901332,6.901332 z" />
  <path
     d="M 13.974378,63.948776 H 13.064215 V 58.66771 q 0,-0.455082 0.01058,-0.730248 0.01058,-0.275166 0.03175,-0.571498 -0.169333,0.169333 -0.306916,0.285749 -0.137583,0.116416 -0.349249,0.296332 L 11.64605,58.60421 11.159218,57.979795 13.201795,56.3923 h 0.77258 z"
     style="font-style:normal;font-weight:normal;font-size:10.5833px;line-height:1.25;font-family:sans-serif;fill:#ffffff;fill-opacity:1;stroke:none;stroke-width:0.264583"
     id="path992" />
  <path
     style="fill:none;stroke:#00ccff;stroke-width:2.11667;stroke-linecap:butt;stroke-linejoin:miter;stroke-miterlimit:4;stroke-dasharray:none;stroke-opacity:1"
     d="M 40.673527,60.170545 H 47.81379"
     id="path923-7"
     sodipodi:nodetypes="cc" />
  <path
     id="path25-3"
     style="fill:#55d400;stroke:#d7f4d7;stroke-width:1.32292;stroke-miterlimit:4;stroke-dasharray:none"
     d="m 40.768004,60.170547 a 6.9013314,6.9013314 0 0 1 -6.901331,6.901327 6.9013314,6.9013314 0 0 1 -6.901332,-6.901327 6.9013314,6.9013314 0 0 1 6.901332,-6.901332 6.9013314,6.9013314 0 0 1 6.901331,6.901332 z" />
  <path
     d="m 36.364329,64.001694 h -4.995317 v -0.772581 l 1.979077,-2.000244 q 0.571498,-0.571498 0.96308,-1.015997 0.391582,-0.444498 0.592665,-0.86783 0.201083,-0.433915 0.201083,-0.941914 0,-0.624414 -0.370416,-0.941913 -0.370415,-0.328083 -0.96308,-0.328083 -0.550332,0 -0.973664,0.1905 -0.412748,0.190499 -0.846664,0.529165 l -0.497415,-0.624415 q 0.444499,-0.370416 1.015997,-0.624415 0.582081,-0.264582 1.301746,-0.264582 1.05833,0 1.672161,0.539748 0.613832,0.529165 0.613832,1.471079 0,0.592664 -0.243416,1.111246 -0.243416,0.518582 -0.677332,1.02658 -0.433915,0.497415 -1.015996,1.068914 l -1.576912,1.555745 v 0.04233 h 3.820571 z"
     style="font-style:normal;font-weight:normal;font-size:10.5833px;line-height:1.25;font-family:sans-serif;fill:#ffffff;fill-opacity:1;stroke:none;stroke-width:0.264583"
     id="path996" />
  <path
     id="path25-6"
     style="fill:#00ccff;stroke:#d7eef4;stroke-width:1.32292;stroke-miterlimit:4;stroke-dasharray:none"
     d="m 61.454497,60.170543 a 6.9013314,6.9013314 0 0 1 -6.901332,6.901331 6.9013314,6.9013314 0 0 1 -6.901331,-6.901331 6.9013314,6.9013314 0 0 1 6.901331,-6.901332 6.9013314,6.9013314 0 0 1 6.901332,6.901332 z" />
  <path
     d="m 56.807407,58.159715 q 0,0.761998 -0.423332,1.21708 -0.423332,0.444498 -1.142997,0.592664 v 0.04233 q 0.910164,0.105833 1.354663,0.571498 0.444498,0.465665 0.444498,1.217079 0,0.656165 -0.306915,1.174746 -0.306916,0.507999 -0.952497,0.793748 -0.634998,0.285749 -1.640412,0.285749 -0.592665,0 -1.100663,-0.09525 -0.507998,-0.08467 -0.973664,-0.317499 v -0.86783 q 0.476249,0.232832 1.02658,0.370415 0.550332,0.127 1.05833,0.127 1.015997,0 1.460496,-0.391582 0.455082,-0.402166 0.455082,-1.100663 0,-0.709081 -0.560915,-1.015997 -0.550332,-0.317499 -1.555745,-0.317499 H 53.219668 V 59.65196 h 0.740831 q 0.93133,0 1.407579,-0.391582 0.486832,-0.391582 0.486832,-1.037163 0,-0.550332 -0.370416,-0.846664 -0.370415,-0.306916 -1.005413,-0.306916 -0.613832,0 -1.047747,0.179916 -0.433915,0.179916 -0.857247,0.455082 l -0.465665,-0.634998 q 0.402165,-0.317499 0.99483,-0.550331 0.603248,-0.232833 1.365245,-0.232833 1.18533,0 1.756828,0.529165 0.582082,0.529165 0.582082,1.344079 z"
     style="font-style:normal;font-weight:normal;font-size:10.5833px;line-height:1.25;font-family:sans-serif;fill:#ffffff;fill-opacity:1;stroke:none;stroke-width:0.264583"
     id="path1000" />
</svg>
